<svg xmlns="http://www.w3.org/2000/svg" class="svg-logo" width="2400" height="2400" viewBox="0 0 630 430" style="height: auto;"><rect width="630" height="630" y="-100" rx="0" ry="0" fill="transparent" fill-opacity="0"></rect><g data-element="wrapper" transform="translate(47.24999999999697 32.249999999997925) scale(0.8500000000000096)"><g ><g data-element="icon" transform="scale(0.13095386091365474) translate(3679.043910757782 1341.8001278137933)"><path id="color_x5F_2_7_" d="M560.506,219.956l-90.692,62.505c-1.283-1.682-2.714-3.266-4.305-4.723    c0,0-4.189-3.862-9.957-9.179l93.867-64.691c4.442-3.063,10.527-1.943,13.588,2.5C566.07,210.811,564.95,216.893,560.506,219.956z     M508.504,105.078c-0.688-1.087-17.266-26.914-51.316-52.814C425.842,28.421,373.065,0,299.643,0    c-55.764,0-111,17.443-156.562,49.635c-4.408,3.113-5.455,9.209-2.344,13.616c3.114,4.406,9.209,5.457,13.617,2.342    c42.239-29.835,93.581-46.054,145.289-46.054c54.282,0,103.091,16.078,145.072,47.788c20.96,15.831,34.895,31.834,41.92,40.842    l-46.888,34.31H295.378c4.898,3.551,16.035,11.627,26.939,19.539H442.94c2.076,0,4.094-0.66,5.769-1.885l57.314-41.94    C510.175,115.156,511.259,109.421,508.504,105.078z M116.125,75.288c-6.834,0-12.375,5.541-12.375,12.375    c0,6.833,5.542,12.375,12.375,12.375c6.834,0,12.375-5.541,12.375-12.375C128.501,80.829,122.959,75.288,116.125,75.288z     M299.527,416.089l-23.317,23.153l-0.102,0.102c-6.628,6.782-17.536,6.905-24.315,0.28c-4.826-4.716-6.396-11.822-4.13-18.101    l27.703-27.705c-1.502-1.383-2.399-2.211-2.399-2.211c-4.279-3.917-7.367-8.655-9.265-13.757l-27.089,26.795    c-6.798,6.232-16.643,2.231-21.245-2.266c-4.767-4.658-4.816-12.747-0.283-18.979c0.605-0.381,32.388-32.343,32.388-32.343    c3.815-3.816,3.815-10.001,0-13.817c-3.815-3.813-10.001-3.813-13.816,0c0,0-25.264,27.46-30.186,31.147    c-5.099,5.099-15.445,2.36-19.862-1.956c-5.086-4.973-7.615-13.907-2.233-20.989l29.535-29.467    c3.817-3.815,3.817-10.001,0.002-13.816c-3.815-3.814-10.001-3.815-13.816-0.001c-4.665,4.665-21.953,23.833-29.508,29.12    c-4.112,2.877-15.107,3.399-20.017-3.02c-5.657-7.396-4.899-15.405,1.548-22.125l108.245-102.539l-8.104-5.144    c-3.439-2.184-5.048-6.161-4.385-9.939l-109.346,103.58l-0.27,0.267c-6.856,7.018-10.572,16.285-10.461,26.095    c0.113,9.813,4.039,18.992,11.056,25.846c6.303,6.164,14.551,9.724,23.091,10.329c0.142,9.526,3.957,18.884,11.006,25.773    c6.112,5.974,13.891,9.5,22.042,10.291c-0.148,9.86,3.676,19.608,11.045,26.81c6.63,6.478,15.221,10.065,24.071,10.443    c0.159,9.471,3.968,18.756,11.025,25.651c14.283,13.957,37.896,13.703,51.885-0.533l23.885-23.719    C310.993,426.657,305.542,421.632,299.527,416.089z" fill="#4ebbdd" fill-opacity="1"></path> <path id="color_x5F_1_7_" d="M567.453,327.798c-7.086,47.826-24.158,91.952-50.739,131.151    c-21.214,31.28-49.555,58.086-81.027,83.779c-43.557,35.56-107.695,57.157-111.226,57.263c-5.2,0.157-9.748-1.756-9.748-9.005v-47.3    c-4.86-0.229-10.709-0.453-15.071-0.453c-149.771,0-271.619-121.847-271.619-271.617c0-3.4,1.768-6.555,4.667-8.331    c2.899-1.777,6.513-1.918,9.543-0.372l84.557,43.129c-1.356,3.938-2.039,8.122-1.991,12.41c0.035,3.133,0.465,6.2,1.255,9.149    l-77.977-39.772C56.466,419.3,166.092,523.695,299.643,523.695c9.534,0,24.802,0.943,25.448,0.984    c5.148,0.321,9.162,4.591,9.162,9.751v42.681c18.149-7.077,53.529-22.891,90.284-50.442c30.684-23.001,56.333-49.589,76.235-79.025    c24.788-36.661,40.72-77.948,47.355-122.71c0.79-5.338,5.752-9.029,11.096-8.232C564.56,317.493,568.245,322.46,567.453,327.798z     M353.048,231.142c13.482-14.829,10.913-36.343-3.612-49.415c-0.312-0.281-56.641-41.12-56.641-41.12    c-1.669-1.208-3.674-1.858-5.732-1.858h-41.683c-1.332,0-2.649,0.272-3.871,0.799l-62.092,26.784l-92.271-49.717    c-4.754-2.56-10.676-0.784-13.234,3.966c-2.561,4.75-0.783,10.675,3.966,13.235l96.434,51.96c2.629,1.415,5.761,1.552,8.505,0.37    l64.579-27.858h36.498l52.699,38.181c10.47,9.964,4.891,18.374,2.049,21.475c-4.348,4.472-11.14,8.088-16.762,3.529    c-0.294-0.24-62.149-39.52-62.149-39.52c-4.552-2.891-10.592-1.543-13.482,3.014c-2.892,4.556-1.542,10.592,3.012,13.483    l60.79,38.579C323.442,247.447,342.662,242.569,353.048,231.142z M559.601,267.943c-6.834,0-12.375,5.54-12.375,12.375    c0,6.833,5.542,12.374,12.375,12.374c6.834,0,12.375-5.542,12.375-12.374C571.976,273.484,566.435,267.943,559.601,267.943z     M467.706,327.961c-6.254,6.835-14.987,10.953-24.206,11.474c-0.405,8.134-3.574,16.062-9.24,22.254    c-6.493,7.087-15.631,11.252-25.213,11.523c-0.584,7.779-3.74,15.274-9.244,21.283c-6.223,6.805-14.907,10.918-24.08,11.467    c-0.181,8.435-3.373,16.703-9.335,23.22c-13.058,14.258-35.992,15.36-50.247,2.22c-0.019-0.017-43.172-39.795-43.172-39.795    c-14.438-13.216-15.436-35.756-2.202-50.223c6.236-6.807,14.918-10.916,24.089-11.468c0.179-8.434,3.373-16.702,9.339-23.223    c6.486-7.085,15.626-11.248,25.207-11.52c0.584-7.78,3.74-15.276,9.242-21.284c6.256-6.834,14.989-10.95,24.209-11.471    c0.407-8.135,3.578-16.064,9.244-22.257c13.055-14.266,35.997-15.356,50.245-2.22c0.011,0.01,43.168,39.797,43.168,39.797    c6.982,6.39,11.074,15.148,11.495,24.638C477.424,311.866,474.122,320.953,467.706,327.961z M355.271,399.901    c0,0-53.754-49.68-53.953-49.901c-5.756-1.611-12.09,0.153-16.14,4.579c-5.96,6.514-5.51,16.673,1.009,22.639l43.17,39.794    c6.431,5.885,16.737,5.408,22.617-1.021C355.991,411.599,357.204,405.441,355.271,399.901z M389.105,366.639    c0,0-53.937-51.055-54.126-51.268c-5.792-1.718-12.282,0.04-16.373,4.514c-4.172,4.562-5.328,11.026-3.065,16.72l53.173,49.114    c5.887,1.887,12.507,0.138,16.678-4.416C389.057,377.301,390.399,371.832,389.105,366.639z M423.413,333.35    c0,0-54.428-50.759-54.593-50.936c-5.67-1.446-11.807,0.345-15.768,4.671c-3.782,4.13-5.088,9.83-3.57,15.173l53.487,50.601    c5.94,1.983,12.655,0.257,16.879-4.362C423.583,344.414,424.894,338.639,423.413,333.35z M452.29,292.126    c-0.041-0.038-43.166-39.797-43.166-39.797c-6.42-5.876-16.744-5.394-22.615,1.023c-3.871,4.23-5.146,10.273-3.41,15.71    l53.908,50.248c5.782,1.685,12.21-0.093,16.284-4.54C459.206,308.311,458.716,298.05,452.29,292.126z" fill="#1c75bc" fill-opacity="1"></path></g><path d="M100.70 185.72L100.70 185.72Q101.79 185.72 103.49 185.78Q105.18 185.85 106.75 186.17Q108.32 186.49 109.47 187.19Q110.62 187.90 110.62 189.24L110.62 189.24Q112.03 189.24 113.31 189.62Q114.59 190.01 115.58 190.90Q116.58 191.80 117.18 193.27Q117.79 194.74 117.79 196.92L117.79 196.92Q117.79 201.02 115.71 203.00Q113.63 204.98 110.43 204.98L110.43 204.98Q109.73 204.98 108.83 204.89Q107.94 204.79 107.23 204.66L107.23 204.66L107.23 204.22Q108.70 203.70 109.63 202.33Q110.56 200.95 110.56 198.26L110.56 198.26Q110.56 193.78 107.84 191.35Q105.12 188.92 100.70 188.92L100.70 188.92Q97.12 188.92 93.98 190.58Q90.85 192.25 88.48 195.38Q86.11 198.52 84.74 203.06Q83.36 207.61 83.36 213.43L83.36 213.43Q83.36 219.00 84.64 223.19Q85.92 227.38 88.16 230.20Q90.40 233.02 93.50 234.46Q96.61 235.90 100.26 235.90L100.26 235.90Q103.46 235.90 105.57 234.84Q107.68 233.78 108.93 231.96Q110.18 230.14 110.69 227.67Q111.20 225.21 111.33 222.39L111.33 222.39Q112.16 222.39 113.22 222.65Q114.27 222.90 115.17 223.54Q116.06 224.18 116.70 225.24Q117.34 226.30 117.34 227.90L117.34 227.90Q117.34 228.79 117.12 229.75Q116.90 230.71 116.32 231.48Q115.74 232.25 114.82 232.73Q113.89 233.21 112.54 233.21L112.54 233.21Q112.54 234.87 111.39 235.99Q110.24 237.11 108.38 237.78Q106.53 238.46 104.26 238.78Q101.98 239.10 99.74 239.10L99.74 239.10Q94.88 239.10 90.72 237.66Q86.56 236.22 83.49 233.14Q80.42 230.07 78.69 225.18Q76.96 220.28 76.96 213.37L76.96 213.37Q76.96 206.26 78.78 201.05Q80.61 195.83 83.84 192.44Q87.07 189.05 91.39 187.38Q95.71 185.72 100.70 185.72ZM147.04 222.46L147.04 231.86Q147.04 233.14 147.46 233.98Q147.87 234.81 148.48 235.32Q149.09 235.83 149.89 236.06Q150.69 236.28 151.46 236.28L151.46 236.28L151.46 238.20Q149.98 238.20 148.93 237.94Q147.87 237.69 146.40 237.69L146.40 237.69Q144.93 237.69 143.84 237.75Q142.75 237.82 141.28 238.20L141.28 238.20L141.28 234.81Q139.81 236.47 137.76 237.78Q135.71 239.10 132.77 239.10L132.77 239.10Q130.40 239.10 128.45 238.46Q126.50 237.82 125.12 236.60Q123.74 235.38 122.98 233.69Q122.21 231.99 122.21 229.88L122.21 229.88Q122.21 227.83 123.01 226.20Q123.81 224.57 125.28 223.45Q126.75 222.33 128.74 221.72Q130.72 221.11 133.15 221.11L133.15 221.11Q135.90 221.11 137.86 221.66Q139.81 222.20 141.28 222.90L141.28 222.90L141.28 220.54Q141.28 218.87 141.06 217.21Q140.83 215.54 140.19 214.20Q139.55 212.86 138.34 212.02Q137.12 211.19 135.20 211.19L135.20 211.19Q134.37 211.19 133.38 211.38Q132.38 211.58 131.55 212.06Q130.72 212.54 130.14 213.34Q129.57 214.14 129.57 215.35L129.57 215.35Q129.57 215.99 129.76 216.82L129.76 216.82Q128.80 217.34 127.65 217.34L127.65 217.34Q125.86 217.34 125.02 216.34Q124.19 215.35 124.19 214.07L124.19 214.07Q124.19 212.79 125.06 211.80Q125.92 210.81 127.52 210.81L127.52 210.81Q127.52 210.10 128.16 209.59Q128.80 209.08 129.86 208.79Q130.91 208.50 132.19 208.38Q133.47 208.25 134.82 208.25L134.82 208.25Q137.70 208.25 139.97 208.92Q142.24 209.59 143.81 211.22Q145.38 212.86 146.21 215.58Q147.04 218.30 147.04 222.46L147.04 222.46ZM134.56 236.15L134.56 236.15Q136.80 236.15 138.46 234.84Q140.13 233.53 141.28 231.67L141.28 231.67L141.28 225.27Q139.81 224.57 138.02 224.09Q136.22 223.61 134.43 223.61L134.43 223.61Q131.87 223.61 130.05 225.14Q128.22 226.68 128.22 229.50L128.22 229.50Q128.22 232.44 129.95 234.30Q131.68 236.15 134.56 236.15ZM164.45 225.27L164.45 231.86Q164.45 233.14 164.86 233.98Q165.28 234.81 165.89 235.32Q166.50 235.83 167.30 236.06Q168.10 236.28 168.86 236.28L168.86 236.28L168.86 238.20Q168.10 238.20 167.17 238.10Q166.24 238.01 165.22 237.88Q164.19 237.75 163.26 237.66Q162.34 237.56 161.57 237.56L161.57 237.56Q160.80 237.56 159.87 237.66Q158.94 237.75 157.92 237.88Q156.90 238.01 155.97 238.10Q155.04 238.20 154.27 238.20L154.27 238.20L154.27 236.28Q156.00 236.28 157.34 235.32Q158.69 234.36 158.69 231.86L158.69 231.86L158.69 221.18Q158.69 218.81 158.59 217.24Q158.50 215.67 158.05 214.81Q157.60 213.94 156.77 213.59Q155.94 213.24 154.46 213.24L154.46 213.24L154.46 211.64Q156.06 211.64 157.25 211.45Q158.43 211.26 159.39 210.87Q160.35 210.49 161.15 209.98Q161.95 209.46 162.85 208.89L162.85 208.89L164.45 208.89L164.45 215.54Q165.98 211.77 168.13 210.01Q170.27 208.25 172.51 208.25L172.51 208.25Q173.92 208.25 175.07 208.70Q176.22 209.14 176.22 210.23L176.22 210.23Q177.50 210.23 178.24 211.06Q178.98 211.90 178.98 213.37L178.98 213.37Q178.98 215.03 177.82 216.28Q176.67 217.53 173.98 218.04L173.98 218.04Q174.24 217.08 174.24 216.12L174.24 216.12Q174.24 213.82 173.18 212.73Q172.13 211.64 170.85 211.64L170.85 211.64Q169.82 211.64 168.70 212.70Q167.58 213.75 166.62 215.61Q165.66 217.46 165.06 219.93Q164.45 222.39 164.45 225.27L164.45 225.27ZM210.59 186.42L210.59 230.46Q210.59 236.34 211.74 239.38Q212.90 242.42 216.48 242.42L216.48 242.42Q216.93 242.42 217.54 242.36Q218.14 242.30 218.46 242.17L218.46 242.17L218.66 242.49Q217.82 243.83 216.38 244.28Q214.94 244.73 213.66 244.73L213.66 244.73Q211.17 244.73 209.79 243.64Q208.42 242.55 208.42 240.95L208.42 240.95Q206.56 240.95 205.79 239.61Q205.02 238.26 204.90 235.58L204.90 235.58Q202.72 237.69 200.38 238.39Q198.05 239.10 195.87 239.10L195.87 239.10Q192.42 239.10 189.79 237.94Q187.17 236.79 185.38 234.71Q183.58 232.63 182.69 229.75Q181.79 226.87 181.79 223.42L181.79 223.42Q181.79 219.38 183.04 216.54Q184.29 213.69 186.30 211.83Q188.32 209.98 190.91 209.11Q193.50 208.25 196.19 208.25L196.19 208.25Q198.88 208.25 200.93 209.08Q202.98 209.91 204.83 212.02L204.83 212.02L204.83 199.03Q204.83 196.66 204.74 195.10Q204.64 193.53 204.19 192.66Q203.74 191.80 202.91 191.45Q202.08 191.10 200.61 191.10L200.61 191.10L200.61 189.18Q202.21 189.18 203.33 188.98Q204.45 188.79 205.34 188.41Q206.24 188.02 207.01 187.51Q207.78 187.00 208.67 186.42L208.67 186.42L210.59 186.42ZM196.19 236.15L196.19 236.15Q198.37 236.15 200.03 235.16Q201.70 234.17 202.75 232.44Q203.81 230.71 204.35 228.44Q204.90 226.17 204.90 223.54L204.90 223.54Q204.90 221.05 204.38 218.84Q203.87 216.63 202.78 214.94Q201.70 213.24 200.06 212.28Q198.43 211.32 196.13 211.32L196.13 211.32Q193.82 211.32 192.22 212.25Q190.62 213.18 189.66 214.81Q188.70 216.44 188.29 218.65Q187.87 220.86 187.87 223.42L187.87 223.42Q187.87 225.91 188.26 228.22Q188.64 230.52 189.60 232.28Q190.56 234.04 192.16 235.10Q193.76 236.15 196.19 236.15ZM256.22 192.82L256.22 231.10Q256.22 232.38 256.83 233.21Q257.44 234.04 258.30 234.55Q259.17 235.06 260.16 235.29Q261.15 235.51 261.92 235.51L261.92 235.51L261.92 238.20Q261.15 238.20 260.00 238.10Q258.85 238.01 257.63 237.88Q256.42 237.75 255.26 237.66Q254.11 237.56 253.34 237.56L253.34 237.56Q252.58 237.56 251.42 237.66Q250.27 237.75 249.06 237.88Q247.84 238.01 246.69 238.10Q245.54 238.20 244.77 238.20L244.77 238.20L244.77 235.51Q245.60 235.51 246.62 235.29Q247.65 235.06 248.48 234.55Q249.31 234.04 249.89 233.21Q250.46 232.38 250.46 231.10L250.46 231.10L250.46 205.75Q250.46 203.38 250.37 201.82Q250.27 200.25 249.82 199.38Q249.38 198.52 248.54 198.17Q247.71 197.82 246.24 197.82L246.24 197.82L246.24 195.58Q247.84 195.58 249.02 195.38Q250.21 195.19 251.17 194.81Q252.13 194.42 252.93 193.91Q253.73 193.40 254.62 192.82L254.62 192.82L256.22 192.82ZM257.06 185.72L257.06 185.72Q258.40 185.72 260.26 185.85Q262.11 185.98 264.10 186.46Q266.08 186.94 268.00 187.86Q269.92 188.79 271.46 190.33Q272.99 191.86 273.92 194.14Q274.85 196.41 274.85 199.61L274.85 199.61Q274.85 202.68 273.98 204.86Q273.12 207.03 271.78 208.47Q270.43 209.91 268.83 210.65Q267.23 211.38 265.70 211.51L265.70 211.51L265.70 211.77Q268.19 211.77 270.85 212.79Q273.50 213.82 275.65 215.96Q277.79 218.10 279.20 221.40Q280.61 224.70 280.61 229.30L280.61 229.30Q280.61 234.49 278.37 238.01Q276.13 241.53 272.54 243.70Q268.96 245.88 264.38 246.81Q259.81 247.74 255.14 247.74L255.14 247.74Q251.42 247.74 247.90 247.16Q244.38 246.58 241.66 245.43Q238.94 244.28 237.28 242.58Q235.62 240.89 235.62 238.71L235.62 238.71Q235.62 237.18 236.58 236.86L236.58 236.86Q236.26 236.66 235.87 236.02Q235.49 235.38 235.17 234.46Q234.85 233.53 234.59 232.34Q234.34 231.16 234.34 229.94L234.34 229.94Q234.34 228.98 234.56 227.74Q234.78 226.49 235.46 225.30Q236.13 224.12 237.38 223.16Q238.62 222.20 240.67 221.82L240.67 221.82L241.06 222.14Q240.35 223.74 240.13 225.56Q239.90 227.38 239.90 229.05L239.90 229.05Q239.90 234.42 241.66 237.53Q243.42 240.63 245.92 242.23Q248.42 243.83 251.07 244.25Q253.73 244.66 255.58 244.66L255.58 244.66Q258.98 244.66 262.24 243.90Q265.50 243.13 268.10 241.37Q270.69 239.61 272.29 236.82Q273.89 234.04 273.89 230.01L273.89 230.01Q273.89 225.72 272.48 222.68Q271.07 219.64 268.90 217.69Q266.72 215.74 264.10 214.84Q261.47 213.94 259.04 213.94L259.04 213.94L259.04 211.38Q261.15 211.38 262.91 210.42Q264.67 209.46 265.89 207.83Q267.10 206.20 267.78 204.09Q268.45 201.98 268.45 199.67L268.45 199.67Q268.45 197.37 267.71 195.38Q266.98 193.40 265.44 191.96Q263.90 190.52 261.50 189.72Q259.10 188.92 255.78 188.92L255.78 188.92Q251.23 188.92 248.38 190.39Q245.54 191.86 243.90 194.26Q242.27 196.66 241.66 199.64Q241.06 202.62 241.06 205.69L241.06 205.69Q238.05 205.69 236.77 204.54Q235.49 203.38 235.49 201.40L235.49 201.40Q235.49 199.54 236.42 198.39Q237.34 197.24 238.56 197.24L238.56 197.24Q238.05 196.73 237.92 195.86Q237.79 195.00 237.79 194.49L237.79 194.49Q237.79 192.31 239.55 190.68Q241.31 189.05 244.06 187.93Q246.82 186.81 250.24 186.26Q253.66 185.72 257.06 185.72ZM309.15 223.74L309.15 221.50Q309.15 219.13 309.06 217.56Q308.96 215.99 308.51 215.13Q308.06 214.26 307.23 213.91Q306.40 213.56 304.93 213.56L304.93 213.56L304.93 211.64Q306.53 211.64 307.65 211.45Q308.77 211.26 309.66 210.87Q310.56 210.49 311.33 209.98Q312.10 209.46 312.99 208.89L312.99 208.89L314.91 208.89L314.91 231.61Q314.91 232.89 315.33 233.72Q315.74 234.55 316.35 235.06Q316.96 235.58 317.76 235.80Q318.56 236.02 319.33 236.02L319.33 236.02L319.33 238.26Q317.86 238.07 316.80 237.91Q315.74 237.75 314.14 237.75L314.14 237.75Q311.97 237.75 309.79 238.20L309.79 238.20L309.15 237.56L309.15 233.98Q308.45 235.06 307.71 235.99Q306.98 236.92 305.95 237.59Q304.93 238.26 303.58 238.68Q302.24 239.10 300.38 239.10L300.38 239.10Q293.98 239.10 291.23 235.16Q288.48 231.22 288.35 223.74L288.35 223.74Q288.29 220.28 288.19 218.26Q288.10 216.25 287.71 215.19Q287.33 214.14 286.50 213.85Q285.66 213.56 284.13 213.56L284.13 213.56L284.13 211.64Q285.73 211.64 286.85 211.45Q287.97 211.26 288.86 210.87Q289.76 210.49 290.53 209.98Q291.30 209.46 292.19 208.89L292.19 208.89L294.11 208.89L294.11 222.39Q294.11 226.30 294.62 228.92Q295.14 231.54 296.06 233.14Q296.99 234.74 298.27 235.42Q299.55 236.09 301.09 236.09L301.09 236.09Q302.88 236.09 304.38 235.16Q305.89 234.23 306.94 232.57Q308.00 230.90 308.58 228.63Q309.15 226.36 309.15 223.74L309.15 223.74ZM352.35 186.42L352.35 230.46Q352.35 236.34 353.50 239.38Q354.66 242.42 358.24 242.42L358.24 242.42Q358.69 242.42 359.30 242.36Q359.90 242.30 360.22 242.17L360.22 242.17L360.42 242.49Q359.58 243.83 358.14 244.28Q356.70 244.73 355.42 244.73L355.42 244.73Q352.93 244.73 351.55 243.64Q350.18 242.55 350.18 240.95L350.18 240.95Q348.32 240.95 347.55 239.61Q346.78 238.26 346.66 235.58L346.66 235.58Q344.48 237.69 342.14 238.39Q339.81 239.10 337.63 239.10L337.63 239.10Q334.18 239.10 331.55 237.94Q328.93 236.79 327.14 234.71Q325.34 232.63 324.45 229.75Q323.55 226.87 323.55 223.42L323.55 223.42Q323.55 219.38 324.80 216.54Q326.05 213.69 328.06 211.83Q330.08 209.98 332.67 209.11Q335.26 208.25 337.95 208.25L337.95 208.25Q340.64 208.25 342.69 209.08Q344.74 209.91 346.59 212.02L346.59 212.02L346.59 199.03Q346.59 196.66 346.50 195.10Q346.40 193.53 345.95 192.66Q345.50 191.80 344.67 191.45Q343.84 191.10 342.37 191.10L342.37 191.10L342.37 189.18Q343.97 189.18 345.09 188.98Q346.21 188.79 347.10 188.41Q348.00 188.02 348.77 187.51Q349.54 187.00 350.43 186.42L350.43 186.42L352.35 186.42ZM337.95 236.15L337.95 236.15Q340.13 236.15 341.79 235.16Q343.46 234.17 344.51 232.44Q345.57 230.71 346.11 228.44Q346.66 226.17 346.66 223.54L346.66 223.54Q346.66 221.05 346.14 218.84Q345.63 216.63 344.54 214.94Q343.46 213.24 341.82 212.28Q340.19 211.32 337.89 211.32L337.89 211.32Q335.58 211.32 333.98 212.25Q332.38 213.18 331.42 214.81Q330.46 216.44 330.05 218.65Q329.63 220.86 329.63 223.42L329.63 223.42Q329.63 225.91 330.02 228.22Q330.40 230.52 331.36 232.28Q332.32 234.04 333.92 235.10Q335.52 236.15 337.95 236.15ZM388.90 186.42L388.90 230.46Q388.90 236.34 390.05 239.38Q391.20 242.42 394.78 242.42L394.78 242.42Q395.23 242.42 395.84 242.36Q396.45 242.30 396.77 242.17L396.77 242.17L396.96 242.49Q396.13 243.83 394.69 244.28Q393.25 244.73 391.97 244.73L391.97 244.73Q389.47 244.73 388.10 243.64Q386.72 242.55 386.72 240.95L386.72 240.95Q384.86 240.95 384.10 239.61Q383.33 238.26 383.20 235.58L383.20 235.58Q381.02 237.69 378.69 238.39Q376.35 239.10 374.18 239.10L374.18 239.10Q370.72 239.10 368.10 237.94Q365.47 236.79 363.68 234.71Q361.89 232.63 360.99 229.75Q360.10 226.87 360.10 223.42L360.10 223.42Q360.10 219.38 361.34 216.54Q362.59 213.69 364.61 211.83Q366.62 209.98 369.22 209.11Q371.81 208.25 374.50 208.25L374.50 208.25Q377.18 208.25 379.23 209.08Q381.28 209.91 383.14 212.02L383.14 212.02L383.14 199.03Q383.14 196.66 383.04 195.10Q382.94 193.53 382.50 192.66Q382.05 191.80 381.22 191.45Q380.38 191.10 378.91 191.10L378.91 191.10L378.91 189.18Q380.51 189.18 381.63 188.98Q382.75 188.79 383.65 188.41Q384.54 188.02 385.31 187.51Q386.08 187.00 386.98 186.42L386.98 186.42L388.90 186.42ZM374.50 236.15L374.50 236.15Q376.67 236.15 378.34 235.16Q380.00 234.17 381.06 232.44Q382.11 230.71 382.66 228.44Q383.20 226.17 383.20 223.54L383.20 223.54Q383.20 221.05 382.69 218.84Q382.18 216.63 381.09 214.94Q380.00 213.24 378.37 212.28Q376.74 211.32 374.43 211.32L374.43 211.32Q372.13 211.32 370.53 212.25Q368.93 213.18 367.97 214.81Q367.01 216.44 366.59 218.65Q366.18 220.86 366.18 223.42L366.18 223.42Q366.18 225.91 366.56 228.22Q366.94 230.52 367.90 232.28Q368.86 234.04 370.46 235.10Q372.06 236.15 374.50 236.15ZM398.94 198.78L398.94 198.78Q398.94 196.86 400.29 195.54Q401.63 194.23 403.49 194.23L403.49 194.23Q405.34 194.23 406.66 195.54Q407.97 196.86 407.97 198.78L407.97 198.78Q407.97 200.70 406.66 202.01Q405.34 203.32 403.49 203.32L403.49 203.32Q401.63 203.32 400.29 202.01Q398.94 200.70 398.94 198.78ZM406.18 208.25L406.18 231.86Q406.18 233.14 406.59 233.98Q407.01 234.81 407.62 235.32Q408.22 235.83 409.02 236.06Q409.82 236.28 410.59 236.28L410.59 236.28L410.59 238.20Q409.82 238.20 408.90 238.10Q407.97 238.01 406.94 237.88Q405.92 237.75 404.99 237.66Q404.06 237.56 403.30 237.56L403.30 237.56Q402.53 237.56 401.60 237.66Q400.67 237.75 399.65 237.88Q398.62 238.01 397.70 238.10Q396.77 238.20 396.00 238.20L396.00 238.20L396.00 236.28Q397.73 236.28 399.07 235.32Q400.42 234.36 400.42 231.86L400.42 231.86L400.42 220.86Q400.42 218.49 400.32 216.92Q400.22 215.35 399.78 214.49Q399.33 213.62 398.50 213.27Q397.66 212.92 396.19 212.92L396.19 212.92L396.19 211.00Q397.79 211.00 398.91 210.81Q400.03 210.62 400.93 210.23Q401.82 209.85 402.59 209.34Q403.36 208.82 404.26 208.25L404.26 208.25L406.18 208.25ZM429.47 236.22L429.47 236.22Q430.43 236.22 431.39 235.99Q432.35 235.77 433.22 235.16Q434.08 234.55 434.82 233.43Q435.55 232.31 436.13 230.46L436.13 230.46Q437.60 230.46 438.56 231.16Q439.52 231.86 439.52 233.34L439.52 233.34Q439.52 234.68 438.66 235.77Q437.79 236.86 436.35 237.59Q434.91 238.33 433.02 238.71Q431.14 239.10 429.09 239.10L429.09 239.10Q425.57 239.10 422.88 237.98Q420.19 236.86 418.40 234.84Q416.61 232.82 415.68 229.94Q414.75 227.06 414.75 223.61L414.75 223.61Q414.75 216.44 418.53 212.34Q422.30 208.25 429.28 208.25L429.28 208.25Q430.11 208.25 430.94 208.31Q431.78 208.38 432.48 208.60Q433.18 208.82 433.63 209.24Q434.08 209.66 434.08 210.30L434.08 210.30Q435.04 210.30 436.03 210.68Q437.02 211.06 437.89 211.83Q438.75 212.60 439.30 213.78Q439.84 214.97 439.84 216.63L439.84 216.63Q439.84 219.00 438.69 220.54Q437.54 222.07 435.78 223.00Q434.02 223.93 431.94 224.28Q429.86 224.63 428.00 224.63L428.00 224.63Q425.89 224.63 424.06 224.31Q422.24 223.99 420.96 223.54L420.96 223.54L420.96 223.80Q420.96 226.49 421.41 228.79Q421.86 231.10 422.85 232.73Q423.84 234.36 425.47 235.29Q427.10 236.22 429.47 236.22ZM428.77 211.26L428.77 211.26Q425.31 211.26 423.46 213.75Q421.60 216.25 421.09 220.66L421.09 220.66Q422.18 221.37 424.06 221.59Q425.95 221.82 427.68 221.82L427.68 221.82Q431.14 221.82 432.51 220.73Q433.89 219.64 433.89 216.95L433.89 216.95Q433.89 213.75 432.42 212.50Q430.94 211.26 428.77 211.26ZM466.72 214.20L466.72 214.20Q466.72 216.63 465.09 217.75Q463.46 218.87 461.41 218.87L461.41 218.87L461.22 218.55Q461.66 218.36 462.18 217.59Q462.69 216.82 462.69 215.54L462.69 215.54Q462.69 213.37 461.09 212.31Q459.49 211.26 456.86 211.26L456.86 211.26Q456.22 211.26 455.33 211.38Q454.43 211.51 453.60 211.96Q452.77 212.41 452.16 213.24Q451.55 214.07 451.55 215.42L451.55 215.42Q451.55 217.21 452.77 218.23Q453.98 219.26 455.81 219.96Q457.63 220.66 459.74 221.30Q461.86 221.94 463.68 222.97Q465.50 223.99 466.72 225.66Q467.94 227.32 467.94 230.07L467.94 230.07Q467.94 234.55 464.58 236.82Q461.22 239.10 455.71 239.10L455.71 239.10Q455.33 239.10 454.50 239.06Q453.66 239.03 452.86 238.90Q452.06 238.78 451.42 238.52Q450.78 238.26 450.78 237.75L450.78 237.75Q448.10 237.75 446.75 236.34Q445.41 234.94 445.41 232.76L445.41 232.76Q445.41 230.39 446.78 229.37Q448.16 228.34 449.95 228.22L449.95 228.22L450.08 228.41Q449.57 228.98 449.44 229.91Q449.31 230.84 449.31 231.35L449.31 231.35Q449.31 232.76 449.95 233.69Q450.59 234.62 451.55 235.16Q452.51 235.70 453.70 235.93Q454.88 236.15 456.03 236.15L456.03 236.15Q456.29 236.15 457.22 236.09Q458.14 236.02 459.10 235.61Q460.06 235.19 460.83 234.26Q461.60 233.34 461.60 231.67L461.60 231.67Q461.60 229.69 460.45 228.54Q459.30 227.38 457.54 226.62Q455.78 225.85 453.73 225.18Q451.68 224.50 449.92 223.54Q448.16 222.58 447.01 221.02Q445.86 219.45 445.86 216.82L445.86 216.82Q445.86 214.20 447.01 212.54Q448.16 210.87 449.89 209.91Q451.62 208.95 453.57 208.60Q455.52 208.25 457.12 208.25L457.12 208.25Q459.17 208.25 460.26 208.63Q461.34 209.02 461.34 209.72L461.34 209.72Q462.30 209.72 463.26 209.94Q464.22 210.17 464.99 210.68Q465.76 211.19 466.24 212.06Q466.72 212.92 466.72 214.20Z" data-element="company-name" data-text-path="" data-text="Card Buddies" data-font-family="Milonga" fill="#424763" fill-opacity="1"></path></g></g></svg>