<svg xmlns="http://www.w3.org/2000/svg" xmlns:xlink="http://www.w3.org/1999/xlink" width="430" zoomAndPan="magnify" viewBox="0 0 322.5 74.999997" height="100" preserveAspectRatio="xMidYMid meet" version="1.0"><defs><clipPath id="2f534f9f9f"><path d="M 9.371094 0.75 L 312.648438 0.75 L 312.648438 74.882812 L 9.371094 74.882812 Z M 9.371094 0.75 " clip-rule="nonzero"/></clipPath></defs><g clip-path="url(#2f534f9f9f)"><rect x="-32.25" width="387" fill="#ffffff" y="-7.5" height="89.999996" fill-opacity="1"/></g><path fill="#4ebbdd" d="M 305.851562 31.082031 L 298.554688 36.113281 C 298.453125 35.976562 298.335938 35.847656 298.207031 35.730469 C 298.207031 35.730469 297.871094 35.421875 297.40625 34.992188 L 304.957031 29.789062 C 305.316406 29.542969 305.804688 29.632812 306.050781 29.992188 C 306.296875 30.347656 306.207031 30.835938 305.851562 31.082031 Z M 301.667969 21.84375 C 301.613281 21.753906 300.277344 19.675781 297.539062 17.59375 C 295.015625 15.675781 290.773438 13.390625 284.867188 13.390625 C 280.378906 13.390625 275.9375 14.792969 272.273438 17.382812 C 271.917969 17.632812 271.832031 18.125 272.082031 18.476562 C 272.332031 18.832031 272.824219 18.917969 273.179688 18.667969 C 276.578125 16.265625 280.707031 14.960938 284.867188 14.960938 C 289.230469 14.960938 293.160156 16.253906 296.535156 18.804688 C 298.222656 20.078125 299.34375 21.367188 299.90625 22.089844 L 296.136719 24.851562 L 284.523438 24.851562 C 284.917969 25.136719 285.8125 25.785156 286.691406 26.421875 L 296.394531 26.421875 C 296.558594 26.421875 296.722656 26.371094 296.855469 26.269531 L 301.46875 22.898438 C 301.800781 22.652344 301.890625 22.191406 301.667969 21.84375 Z M 270.101562 19.445312 C 269.554688 19.445312 269.109375 19.890625 269.109375 20.441406 C 269.109375 20.992188 269.554688 21.4375 270.101562 21.4375 C 270.652344 21.4375 271.097656 20.992188 271.097656 20.441406 C 271.097656 19.890625 270.652344 19.445312 270.101562 19.445312 Z M 284.855469 46.859375 L 282.980469 48.722656 L 282.972656 48.730469 C 282.4375 49.277344 281.5625 49.285156 281.015625 48.753906 C 280.628906 48.375 280.503906 47.804688 280.683594 47.296875 L 282.914062 45.070312 C 282.792969 44.957031 282.71875 44.890625 282.71875 44.890625 C 282.375 44.578125 282.128906 44.195312 281.976562 43.785156 L 279.796875 45.941406 C 279.25 46.441406 278.457031 46.121094 278.085938 45.757812 C 277.703125 45.382812 277.699219 44.734375 278.0625 44.230469 C 278.113281 44.199219 280.667969 41.628906 280.667969 41.628906 C 280.976562 41.324219 280.976562 40.824219 280.667969 40.519531 C 280.363281 40.210938 279.863281 40.210938 279.558594 40.519531 C 279.558594 40.519531 277.527344 42.726562 277.128906 43.023438 C 276.71875 43.433594 275.886719 43.214844 275.53125 42.867188 C 275.121094 42.464844 274.917969 41.746094 275.351562 41.179688 L 277.726562 38.808594 C 278.035156 38.5 278.035156 38.003906 277.726562 37.695312 C 277.421875 37.390625 276.921875 37.390625 276.617188 37.695312 C 276.242188 38.070312 274.851562 39.613281 274.242188 40.039062 C 273.914062 40.269531 273.027344 40.3125 272.632812 39.796875 C 272.179688 39.199219 272.238281 38.554688 272.757812 38.015625 L 281.464844 29.765625 L 280.8125 29.351562 C 280.535156 29.175781 280.40625 28.859375 280.460938 28.554688 L 271.664062 36.886719 L 271.640625 36.90625 C 271.089844 37.472656 270.792969 38.21875 270.800781 39.007812 C 270.808594 39.796875 271.125 40.535156 271.691406 41.085938 C 272.199219 41.582031 272.859375 41.867188 273.546875 41.917969 C 273.558594 42.683594 273.867188 43.4375 274.433594 43.988281 C 274.925781 44.46875 275.550781 44.753906 276.207031 44.816406 C 276.195312 45.609375 276.5 46.394531 277.09375 46.972656 C 277.628906 47.496094 278.320312 47.785156 279.03125 47.816406 C 279.042969 48.578125 279.351562 49.324219 279.917969 49.878906 C 281.066406 51 282.964844 50.980469 284.089844 49.835938 L 286.011719 47.925781 C 285.777344 47.710938 285.339844 47.308594 284.855469 46.859375 Z M 284.855469 46.859375 " fill-opacity="1" fill-rule="nonzero"/><path fill="#1c75bc" d="M 306.410156 39.757812 C 305.839844 43.605469 304.464844 47.15625 302.328125 50.308594 C 300.621094 52.824219 298.339844 54.980469 295.808594 57.046875 C 292.304688 59.910156 287.144531 61.644531 286.863281 61.65625 C 286.445312 61.667969 286.078125 61.511719 286.078125 60.929688 L 286.078125 57.125 C 285.6875 57.105469 285.214844 57.089844 284.867188 57.089844 C 272.816406 57.089844 263.015625 47.285156 263.015625 35.238281 C 263.015625 34.964844 263.160156 34.710938 263.390625 34.570312 C 263.625 34.425781 263.914062 34.414062 264.160156 34.539062 L 270.960938 38.007812 C 270.851562 38.324219 270.796875 38.660156 270.800781 39.007812 C 270.804688 39.257812 270.839844 39.503906 270.902344 39.742188 L 264.628906 36.542969 C 265.304688 47.117188 274.121094 55.515625 284.867188 55.515625 C 285.632812 55.515625 286.859375 55.59375 286.914062 55.597656 C 287.328125 55.621094 287.648438 55.964844 287.648438 56.378906 L 287.648438 59.8125 C 289.109375 59.246094 291.957031 57.972656 294.914062 55.757812 C 297.382812 53.90625 299.445312 51.765625 301.046875 49.398438 C 303.039062 46.449219 304.320312 43.128906 304.855469 39.527344 C 304.917969 39.097656 305.316406 38.800781 305.746094 38.867188 C 306.175781 38.929688 306.472656 39.328125 306.410156 39.757812 Z M 289.160156 31.984375 C 290.246094 30.789062 290.039062 29.058594 288.871094 28.007812 C 288.847656 27.984375 284.316406 24.699219 284.316406 24.699219 C 284.179688 24.601562 284.019531 24.550781 283.855469 24.550781 L 280.5 24.550781 C 280.394531 24.550781 280.289062 24.574219 280.1875 24.613281 L 275.195312 26.769531 L 267.773438 22.769531 C 267.390625 22.5625 266.914062 22.707031 266.707031 23.089844 C 266.5 23.472656 266.644531 23.949219 267.027344 24.152344 L 274.785156 28.332031 C 274.996094 28.449219 275.246094 28.457031 275.46875 28.363281 L 280.664062 26.121094 L 283.597656 26.121094 L 287.839844 29.195312 C 288.679688 29.996094 288.230469 30.671875 288.003906 30.921875 C 287.652344 31.28125 287.105469 31.570312 286.65625 31.207031 C 286.632812 31.1875 281.65625 28.027344 281.65625 28.027344 C 281.289062 27.792969 280.804688 27.902344 280.570312 28.269531 C 280.339844 28.636719 280.445312 29.121094 280.8125 29.351562 L 285.703125 32.457031 C 286.78125 33.292969 288.328125 32.902344 289.160156 31.984375 Z M 305.777344 34.945312 C 305.226562 34.945312 304.78125 35.390625 304.78125 35.9375 C 304.78125 36.488281 305.226562 36.933594 305.777344 36.933594 C 306.328125 36.933594 306.773438 36.488281 306.773438 35.9375 C 306.773438 35.390625 306.328125 34.945312 305.777344 34.945312 Z M 298.386719 39.773438 C 297.882812 40.320312 297.179688 40.652344 296.4375 40.695312 C 296.40625 41.347656 296.152344 41.988281 295.695312 42.484375 C 295.171875 43.054688 294.4375 43.390625 293.667969 43.410156 C 293.621094 44.039062 293.367188 44.640625 292.921875 45.125 C 292.421875 45.671875 291.722656 46.003906 290.984375 46.046875 C 290.972656 46.726562 290.714844 47.390625 290.234375 47.914062 C 289.183594 49.0625 287.339844 49.148438 286.191406 48.09375 C 286.191406 48.089844 282.71875 44.890625 282.71875 44.890625 C 281.558594 43.828125 281.476562 42.015625 282.542969 40.851562 C 283.042969 40.304688 283.742188 39.972656 284.480469 39.929688 C 284.496094 39.25 284.753906 38.585938 285.230469 38.0625 C 285.753906 37.492188 286.488281 37.15625 287.257812 37.132812 C 287.308594 36.507812 287.558594 35.90625 288.003906 35.421875 C 288.507812 34.871094 289.207031 34.542969 289.949219 34.5 C 289.984375 33.84375 290.238281 33.207031 290.695312 32.707031 C 291.746094 31.5625 293.589844 31.472656 294.734375 32.53125 C 294.738281 32.53125 298.207031 35.730469 298.207031 35.730469 C 298.769531 36.246094 299.097656 36.949219 299.132812 37.714844 C 299.167969 38.476562 298.902344 39.207031 298.386719 39.773438 Z M 289.339844 45.558594 C 289.339844 45.558594 285.015625 41.5625 285 41.542969 C 284.539062 41.414062 284.027344 41.558594 283.703125 41.914062 C 283.222656 42.4375 283.257812 43.253906 283.785156 43.734375 L 287.257812 46.933594 C 287.773438 47.410156 288.601562 47.371094 289.074219 46.851562 C 289.398438 46.5 289.496094 46.003906 289.339844 45.558594 Z M 292.0625 42.882812 C 292.0625 42.882812 287.722656 38.777344 287.707031 38.757812 C 287.242188 38.621094 286.71875 38.761719 286.390625 39.121094 C 286.054688 39.488281 285.960938 40.007812 286.144531 40.46875 L 290.421875 44.417969 C 290.894531 44.570312 291.429688 44.429688 291.761719 44.0625 C 292.058594 43.742188 292.167969 43.300781 292.0625 42.882812 Z M 294.820312 40.207031 C 294.820312 40.207031 290.445312 36.121094 290.429688 36.109375 C 289.972656 35.992188 289.480469 36.136719 289.164062 36.484375 C 288.859375 36.816406 288.753906 37.273438 288.875 37.703125 L 293.175781 41.773438 C 293.65625 41.933594 294.195312 41.796875 294.535156 41.421875 C 294.835938 41.09375 294.941406 40.628906 294.820312 40.207031 Z M 297.144531 36.890625 C 297.140625 36.886719 293.671875 33.6875 293.671875 33.6875 C 293.15625 33.214844 292.324219 33.253906 291.855469 33.769531 C 291.542969 34.109375 291.441406 34.597656 291.578125 35.035156 L 295.914062 39.074219 C 296.378906 39.210938 296.898438 39.066406 297.226562 38.710938 C 297.703125 38.191406 297.660156 37.367188 297.144531 36.890625 Z M 297.144531 36.890625 " fill-opacity="1" fill-rule="nonzero"/><path fill="#424763" d="M 26.667969 19.535156 C 27.113281 19.535156 27.683594 19.546875 28.378906 19.574219 C 29.074219 19.601562 29.742188 19.679688 30.382812 19.8125 C 31.027344 19.945312 31.582031 20.152344 32.054688 20.4375 C 32.523438 20.730469 32.761719 21.148438 32.761719 21.699219 C 33.339844 21.699219 33.890625 21.777344 34.414062 21.933594 C 34.9375 22.089844 35.402344 22.355469 35.808594 22.71875 C 36.21875 23.085938 36.542969 23.570312 36.789062 24.175781 C 37.039062 24.777344 37.164062 25.523438 37.164062 26.417969 C 37.164062 28.09375 36.738281 29.339844 35.886719 30.152344 C 35.035156 30.960938 33.953125 31.367188 32.644531 31.367188 C 32.355469 31.367188 32.03125 31.347656 31.660156 31.3125 C 31.296875 31.269531 30.96875 31.222656 30.679688 31.171875 L 30.679688 30.898438 C 31.28125 30.6875 31.773438 30.300781 32.152344 29.738281 C 32.535156 29.175781 32.722656 28.339844 32.722656 27.238281 C 32.722656 25.40625 32.167969 23.988281 31.054688 22.996094 C 29.9375 22 28.476562 21.5 26.667969 21.5 C 25.199219 21.5 23.824219 21.839844 22.539062 22.519531 C 21.257812 23.207031 20.132812 24.1875 19.160156 25.46875 C 18.191406 26.757812 17.425781 28.328125 16.863281 30.1875 C 16.296875 32.050781 16.015625 34.175781 16.015625 36.558594 C 16.015625 38.839844 16.277344 40.835938 16.800781 42.554688 C 17.324219 44.269531 18.046875 45.703125 18.964844 46.859375 C 19.882812 48.015625 20.972656 48.886719 22.242188 49.476562 C 23.519531 50.066406 24.902344 50.359375 26.398438 50.359375 C 27.707031 50.359375 28.792969 50.144531 29.660156 49.710938 C 30.523438 49.277344 31.210938 48.6875 31.722656 47.941406 C 32.234375 47.195312 32.59375 46.316406 32.804688 45.304688 C 33.011719 44.296875 33.144531 43.214844 33.195312 42.0625 C 33.535156 42.0625 33.921875 42.113281 34.359375 42.222656 C 34.789062 42.324219 35.1875 42.507812 35.554688 42.769531 C 35.921875 43.03125 36.234375 43.378906 36.496094 43.8125 C 36.757812 44.246094 36.886719 44.792969 36.886719 45.445312 C 36.886719 45.8125 36.84375 46.191406 36.753906 46.582031 C 36.664062 46.976562 36.5 47.332031 36.261719 47.644531 C 36.023438 47.960938 35.71875 48.21875 35.339844 48.414062 C 34.960938 48.609375 34.492188 48.707031 33.941406 48.707031 C 33.941406 49.386719 33.703125 49.957031 33.234375 50.417969 C 32.761719 50.875 32.144531 51.242188 31.382812 51.515625 C 30.628906 51.792969 29.785156 52 28.855469 52.128906 C 27.921875 52.261719 26.996094 52.328125 26.078125 52.328125 C 24.085938 52.328125 22.238281 52.03125 20.535156 51.441406 C 18.832031 50.851562 17.351562 49.925781 16.09375 48.664062 C 14.835938 47.410156 13.855469 45.777344 13.144531 43.777344 C 12.4375 41.769531 12.082031 39.351562 12.082031 36.519531 C 12.082031 33.609375 12.457031 31.085938 13.203125 28.953125 C 13.949219 26.816406 14.988281 25.050781 16.308594 23.664062 C 17.632812 22.277344 19.179688 21.238281 20.949219 20.554688 C 22.71875 19.875 24.625 19.535156 26.667969 19.535156 Z M 55.132812 42.105469 L 55.132812 47.878906 C 55.132812 48.402344 55.21875 48.835938 55.390625 49.179688 C 55.558594 49.519531 55.769531 49.796875 56.015625 50.003906 C 56.265625 50.214844 56.554688 50.363281 56.882812 50.460938 C 57.210938 50.550781 57.53125 50.59375 57.847656 50.59375 L 57.847656 51.773438 C 57.242188 51.773438 56.722656 51.71875 56.292969 51.613281 C 55.859375 51.511719 55.339844 51.460938 54.738281 51.460938 C 54.136719 51.460938 53.613281 51.472656 53.167969 51.496094 C 52.722656 51.527344 52.195312 51.617188 51.59375 51.773438 L 51.59375 49.691406 C 50.992188 50.371094 50.273438 50.980469 49.433594 51.515625 C 48.59375 52.054688 47.570312 52.328125 46.367188 52.328125 C 45.394531 52.328125 44.511719 52.195312 43.714844 51.933594 C 42.914062 51.671875 42.234375 51.289062 41.667969 50.789062 C 41.101562 50.292969 40.664062 49.695312 40.351562 49.003906 C 40.039062 48.308594 39.878906 47.527344 39.878906 46.664062 C 39.878906 45.824219 40.042969 45.070312 40.371094 44.402344 C 40.699219 43.734375 41.164062 43.171875 41.765625 42.714844 C 42.367188 42.253906 43.078125 41.898438 43.890625 41.648438 C 44.703125 41.402344 45.605469 41.277344 46.601562 41.277344 C 47.726562 41.277344 48.691406 41.386719 49.492188 41.613281 C 50.292969 41.835938 50.992188 42.089844 51.59375 42.375 L 51.59375 40.925781 C 51.59375 40.242188 51.550781 39.558594 51.460938 38.878906 C 51.367188 38.195312 51.1875 37.578125 50.925781 37.03125 C 50.664062 36.480469 50.285156 36.035156 49.789062 35.691406 C 49.289062 35.351562 48.644531 35.183594 47.859375 35.183594 C 47.519531 35.183594 47.148438 35.222656 46.742188 35.296875 C 46.332031 35.378906 45.957031 35.519531 45.617188 35.714844 C 45.277344 35.914062 44.988281 36.175781 44.75 36.503906 C 44.519531 36.832031 44.402344 37.242188 44.402344 37.738281 C 44.402344 38 44.441406 38.300781 44.519531 38.640625 C 44.125 38.851562 43.691406 38.960938 43.222656 38.960938 C 42.488281 38.960938 41.949219 38.753906 41.605469 38.34375 C 41.265625 37.941406 41.097656 37.476562 41.097656 36.949219 C 41.097656 36.425781 41.273438 35.960938 41.632812 35.554688 C 41.984375 35.152344 42.488281 34.949219 43.140625 34.949219 C 43.140625 34.65625 43.273438 34.40625 43.535156 34.199219 C 43.796875 33.988281 44.144531 33.828125 44.578125 33.707031 C 45.007812 33.589844 45.488281 33.503906 46.011719 33.457031 C 46.535156 33.402344 47.074219 33.375 47.625 33.375 C 48.804688 33.375 49.859375 33.511719 50.789062 33.789062 C 51.71875 34.0625 52.503906 34.53125 53.148438 35.199219 C 53.792969 35.871094 54.28125 36.765625 54.621094 37.878906 C 54.964844 38.992188 55.132812 40.402344 55.132812 42.105469 Z M 47.464844 50.515625 C 48.382812 50.515625 49.183594 50.246094 49.863281 49.710938 C 50.546875 49.171875 51.125 48.523438 51.59375 47.761719 L 51.59375 43.832031 C 50.992188 43.542969 50.324219 43.304688 49.59375 43.105469 C 48.855469 42.910156 48.121094 42.8125 47.386719 42.8125 C 46.339844 42.8125 45.441406 43.125 44.695312 43.75 C 43.945312 44.382812 43.570312 45.273438 43.570312 46.429688 C 43.570312 47.632812 43.925781 48.617188 44.632812 49.378906 C 45.34375 50.136719 46.289062 50.515625 47.464844 50.515625 Z M 65.828125 43.832031 L 65.828125 47.878906 C 65.828125 48.402344 65.910156 48.835938 66.078125 49.179688 C 66.25 49.519531 66.460938 49.796875 66.710938 50.003906 C 66.960938 50.214844 67.25 50.363281 67.578125 50.460938 C 67.90625 50.550781 68.226562 50.59375 68.535156 50.59375 L 68.535156 51.773438 C 68.226562 51.773438 67.878906 51.753906 67.5 51.710938 C 67.117188 51.675781 66.71875 51.628906 66.300781 51.578125 C 65.878906 51.523438 65.476562 51.480469 65.097656 51.441406 C 64.71875 51.402344 64.375 51.378906 64.058594 51.378906 C 63.742188 51.378906 63.394531 51.402344 63.015625 51.441406 C 62.632812 51.480469 62.234375 51.523438 61.816406 51.578125 C 61.398438 51.628906 61 51.675781 60.617188 51.710938 C 60.238281 51.753906 59.890625 51.773438 59.574219 51.773438 L 59.574219 50.59375 C 60.28125 50.59375 60.910156 50.398438 61.460938 50.003906 C 62.011719 49.613281 62.289062 48.902344 62.289062 47.878906 L 62.289062 41.320312 C 62.289062 40.347656 62.269531 39.542969 62.226562 38.898438 C 62.191406 38.253906 62.082031 37.757812 61.894531 37.40625 C 61.710938 37.050781 61.449219 36.800781 61.109375 36.65625 C 60.769531 36.511719 60.296875 36.441406 59.691406 36.441406 L 59.691406 35.457031 C 60.347656 35.457031 60.917969 35.417969 61.40625 35.339844 C 61.886719 35.265625 62.324219 35.144531 62.71875 34.984375 C 63.113281 34.828125 63.472656 34.648438 63.800781 34.4375 C 64.128906 34.226562 64.476562 34.003906 64.84375 33.769531 L 65.828125 33.769531 L 65.828125 37.855469 C 66.453125 36.308594 67.207031 35.179688 68.089844 34.457031 C 68.964844 33.734375 69.863281 33.375 70.777344 33.375 C 71.355469 33.375 71.878906 33.46875 72.351562 33.652344 C 72.820312 33.832031 73.058594 34.144531 73.058594 34.59375 C 73.582031 34.59375 73.996094 34.761719 74.296875 35.101562 C 74.601562 35.445312 74.753906 35.917969 74.753906 36.519531 C 74.753906 37.199219 74.515625 37.796875 74.039062 38.308594 C 73.570312 38.820312 72.785156 39.179688 71.683594 39.390625 C 71.789062 38.996094 71.839844 38.601562 71.839844 38.210938 C 71.839844 37.269531 71.625 36.574219 71.191406 36.128906 C 70.761719 35.679688 70.285156 35.457031 69.757812 35.457031 C 69.335938 35.457031 68.898438 35.675781 68.4375 36.109375 C 67.980469 36.539062 67.554688 37.136719 67.160156 37.898438 C 66.765625 38.65625 66.449219 39.539062 66.203125 40.550781 C 65.953125 41.558594 65.828125 42.652344 65.828125 43.832031 Z M 94.171875 19.964844 L 94.171875 47.019531 C 94.171875 49.425781 94.40625 51.253906 94.878906 52.5 C 95.351562 53.742188 96.324219 54.367188 97.789062 54.367188 C 97.972656 54.367188 98.191406 54.355469 98.441406 54.328125 C 98.6875 54.304688 98.875 54.265625 99.003906 54.210938 L 99.128906 54.410156 C 98.785156 54.957031 98.316406 55.324219 97.726562 55.507812 C 97.136719 55.691406 96.582031 55.785156 96.054688 55.785156 C 95.035156 55.785156 94.246094 55.5625 93.679688 55.117188 C 93.117188 54.667969 92.835938 54.117188 92.835938 53.464844 C 92.074219 53.464844 91.539062 53.1875 91.222656 52.640625 C 90.90625 52.085938 90.722656 51.261719 90.675781 50.164062 C 89.78125 51.027344 88.855469 51.605469 87.898438 51.890625 C 86.945312 52.179688 86.019531 52.328125 85.128906 52.328125 C 83.714844 52.328125 82.46875 52.089844 81.394531 51.613281 C 80.320312 51.144531 79.417969 50.480469 78.683594 49.628906 C 77.949219 48.777344 77.398438 47.761719 77.03125 46.582031 C 76.664062 45.402344 76.480469 44.109375 76.480469 42.695312 C 76.480469 41.039062 76.734375 39.632812 77.246094 38.46875 C 77.757812 37.300781 78.425781 36.335938 79.25 35.574219 C 80.078125 34.816406 81.019531 34.261719 82.082031 33.902344 C 83.140625 33.550781 84.222656 33.375 85.324219 33.375 C 86.425781 33.375 87.398438 33.546875 88.238281 33.886719 C 89.078125 34.226562 89.875 34.828125 90.632812 35.691406 L 90.632812 27.710938 C 90.632812 26.742188 90.613281 25.9375 90.578125 25.296875 C 90.535156 24.65625 90.421875 24.15625 90.238281 23.800781 C 90.054688 23.445312 89.792969 23.199219 89.453125 23.054688 C 89.113281 22.914062 88.640625 22.839844 88.039062 22.839844 L 88.039062 21.660156 C 88.695312 21.660156 89.253906 21.621094 89.710938 21.539062 C 90.167969 21.460938 90.582031 21.34375 90.945312 21.1875 C 91.3125 21.027344 91.65625 20.84375 91.972656 20.636719 C 92.285156 20.425781 92.625 20.203125 92.992188 19.964844 Z M 85.324219 50.515625 C 86.21875 50.515625 87.003906 50.3125 87.683594 49.90625 C 88.367188 49.5 88.925781 48.945312 89.355469 48.234375 C 89.789062 47.527344 90.117188 46.707031 90.335938 45.777344 C 90.5625 44.847656 90.675781 43.84375 90.675781 42.769531 C 90.675781 41.75 90.570312 40.785156 90.355469 39.882812 C 90.148438 38.976562 89.820312 38.175781 89.375 37.484375 C 88.929688 36.789062 88.375 36.246094 87.703125 35.851562 C 87.035156 35.457031 86.230469 35.261719 85.289062 35.261719 C 84.34375 35.261719 83.542969 35.453125 82.886719 35.832031 C 82.230469 36.214844 81.707031 36.738281 81.3125 37.40625 C 80.921875 38.074219 80.640625 38.859375 80.472656 39.765625 C 80.300781 40.667969 80.214844 41.644531 80.214844 42.695312 C 80.214844 43.714844 80.292969 44.695312 80.453125 45.644531 C 80.609375 46.585938 80.882812 47.417969 81.277344 48.136719 C 81.671875 48.859375 82.195312 49.433594 82.847656 49.871094 C 83.503906 50.300781 84.328125 50.515625 85.324219 50.515625 Z M 122.199219 23.898438 L 122.199219 47.414062 C 122.199219 47.9375 122.324219 48.367188 122.574219 48.707031 C 122.824219 49.046875 123.125 49.324219 123.476562 49.53125 C 123.835938 49.742188 124.214844 49.890625 124.621094 49.984375 C 125.027344 50.078125 125.386719 50.121094 125.703125 50.121094 L 125.703125 51.773438 C 125.386719 51.773438 124.992188 51.753906 124.523438 51.710938 C 124.050781 51.675781 123.566406 51.628906 123.066406 51.578125 C 122.570312 51.523438 122.085938 51.480469 121.609375 51.441406 C 121.140625 51.402344 120.746094 51.378906 120.429688 51.378906 C 120.121094 51.378906 119.726562 51.402344 119.253906 51.441406 C 118.78125 51.480469 118.296875 51.523438 117.800781 51.578125 C 117.300781 51.628906 116.816406 51.675781 116.347656 51.710938 C 115.875 51.753906 115.480469 51.773438 115.167969 51.773438 L 115.167969 50.121094 C 115.507812 50.121094 115.886719 50.078125 116.304688 49.984375 C 116.726562 49.890625 117.105469 49.742188 117.445312 49.53125 C 117.785156 49.324219 118.074219 49.046875 118.3125 48.707031 C 118.546875 48.367188 118.664062 47.9375 118.664062 47.414062 L 118.664062 31.839844 C 118.664062 30.871094 118.644531 30.066406 118.605469 29.425781 C 118.566406 28.78125 118.453125 28.285156 118.269531 27.925781 C 118.089844 27.574219 117.828125 27.328125 117.484375 27.183594 C 117.144531 27.039062 116.671875 26.96875 116.070312 26.96875 L 116.070312 25.59375 C 116.726562 25.59375 117.292969 25.550781 117.777344 25.46875 C 118.265625 25.390625 118.707031 25.277344 119.097656 25.121094 C 119.492188 24.960938 119.851562 24.777344 120.179688 24.566406 C 120.507812 24.359375 120.851562 24.136719 121.21875 23.898438 Z M 122.714844 19.535156 C 123.265625 19.535156 123.921875 19.5625 124.683594 19.617188 C 125.441406 19.667969 126.226562 19.792969 127.042969 19.992188 C 127.851562 20.1875 128.652344 20.472656 129.4375 20.851562 C 130.222656 21.230469 130.933594 21.738281 131.5625 22.367188 C 132.1875 22.996094 132.691406 23.773438 133.074219 24.707031 C 133.453125 25.636719 133.644531 26.757812 133.644531 28.070312 C 133.644531 29.324219 133.464844 30.402344 133.109375 31.292969 C 132.757812 32.183594 132.308594 32.921875 131.757812 33.511719 C 131.207031 34.101562 130.601562 34.546875 129.945312 34.851562 C 129.292969 35.148438 128.652344 35.324219 128.023438 35.378906 L 128.023438 35.539062 C 129.042969 35.539062 130.097656 35.746094 131.1875 36.164062 C 132.273438 36.585938 133.253906 37.234375 134.136719 38.113281 C 135.011719 38.988281 135.738281 40.101562 136.316406 41.453125 C 136.894531 42.804688 137.183594 44.421875 137.183594 46.304688 C 137.183594 48.433594 136.722656 50.214844 135.808594 51.65625 C 134.890625 53.097656 133.695312 54.261719 132.226562 55.152344 C 130.757812 56.046875 129.089844 56.683594 127.214844 57.0625 C 125.339844 57.445312 123.449219 57.632812 121.539062 57.632812 C 120.015625 57.632812 118.53125 57.515625 117.089844 57.277344 C 115.648438 57.039062 114.371094 56.6875 113.257812 56.214844 C 112.144531 55.742188 111.246094 55.160156 110.566406 54.464844 C 109.886719 53.773438 109.546875 52.980469 109.546875 52.085938 C 109.546875 51.460938 109.742188 51.082031 110.136719 50.949219 C 110.003906 50.867188 109.859375 50.695312 109.699219 50.433594 C 109.542969 50.171875 109.402344 49.851562 109.269531 49.476562 C 109.140625 49.09375 109.019531 48.660156 108.914062 48.175781 C 108.8125 47.691406 108.761719 47.199219 108.761719 46.699219 C 108.761719 46.304688 108.804688 45.855469 108.894531 45.347656 C 108.984375 44.835938 109.167969 44.335938 109.449219 43.847656 C 109.722656 43.367188 110.117188 42.929688 110.628906 42.535156 C 111.136719 42.140625 111.808594 41.867188 112.648438 41.710938 L 112.886719 41.910156 C 112.597656 42.5625 112.40625 43.265625 112.316406 44.007812 C 112.222656 44.753906 112.175781 45.46875 112.175781 46.152344 C 112.175781 48.351562 112.535156 50.089844 113.257812 51.363281 C 113.976562 52.632812 114.851562 53.59375 115.875 54.25 C 116.898438 54.90625 117.953125 55.316406 119.035156 55.488281 C 120.125 55.65625 121.050781 55.742188 121.808594 55.742188 C 123.199219 55.742188 124.5625 55.585938 125.898438 55.273438 C 127.234375 54.960938 128.433594 54.441406 129.5 53.722656 C 130.558594 53 131.417969 52.070312 132.070312 50.925781 C 132.726562 49.789062 133.054688 48.394531 133.054688 46.742188 C 133.054688 44.984375 132.765625 43.484375 132.1875 42.238281 C 131.613281 40.996094 130.878906 39.972656 129.988281 39.175781 C 129.097656 38.375 128.113281 37.792969 127.042969 37.425781 C 125.964844 37.054688 124.929688 36.871094 123.933594 36.871094 L 123.933594 35.296875 C 124.796875 35.296875 125.589844 35.101562 126.308594 34.707031 C 127.03125 34.316406 127.640625 33.785156 128.140625 33.117188 C 128.636719 32.449219 129.023438 31.683594 129.300781 30.820312 C 129.574219 29.957031 129.714844 29.050781 129.714844 28.105469 C 129.714844 27.164062 129.5625 26.285156 129.257812 25.46875 C 128.960938 24.660156 128.496094 23.957031 127.863281 23.371094 C 127.234375 22.78125 126.425781 22.320312 125.445312 21.992188 C 124.460938 21.664062 123.289062 21.5 121.929688 21.5 C 120.066406 21.5 118.550781 21.804688 117.382812 22.40625 C 116.222656 23.007812 115.304688 23.800781 114.632812 24.78125 C 113.964844 25.765625 113.507812 26.867188 113.257812 28.085938 C 113.011719 29.308594 112.886719 30.546875 112.886719 31.804688 C 111.65625 31.804688 110.777344 31.566406 110.253906 31.097656 C 109.730469 30.621094 109.464844 29.980469 109.464844 29.167969 C 109.464844 28.40625 109.65625 27.789062 110.039062 27.320312 C 110.414062 26.847656 110.851562 26.613281 111.351562 26.613281 C 111.144531 26.402344 111.011719 26.121094 110.960938 25.765625 C 110.90625 25.414062 110.878906 25.132812 110.878906 24.921875 C 110.878906 24.03125 111.238281 23.25 111.960938 22.582031 C 112.679688 21.914062 113.605469 21.351562 114.730469 20.894531 C 115.859375 20.433594 117.125 20.09375 118.527344 19.867188 C 119.929688 19.648438 121.324219 19.535156 122.714844 19.535156 Z M 154.714844 42.890625 L 154.714844 41.515625 C 154.714844 40.542969 154.695312 39.738281 154.660156 39.09375 C 154.617188 38.453125 154.507812 37.953125 154.320312 37.601562 C 154.136719 37.246094 153.875 36.996094 153.535156 36.851562 C 153.195312 36.710938 152.722656 36.636719 152.121094 36.636719 L 152.121094 35.457031 C 152.777344 35.457031 153.335938 35.417969 153.792969 35.339844 C 154.253906 35.265625 154.664062 35.144531 155.027344 34.984375 C 155.398438 34.828125 155.738281 34.648438 156.054688 34.4375 C 156.371094 34.226562 156.710938 34.003906 157.074219 33.769531 L 158.253906 33.769531 L 158.253906 47.726562 C 158.253906 48.25 158.339844 48.683594 158.511719 49.023438 C 158.679688 49.363281 158.886719 49.636719 159.136719 49.84375 C 159.386719 50.058594 159.675781 50.210938 160.003906 50.300781 C 160.332031 50.390625 160.652344 50.433594 160.96875 50.433594 L 160.96875 51.8125 C 160.367188 51.734375 159.847656 51.660156 159.414062 51.59375 C 158.980469 51.53125 158.433594 51.496094 157.78125 51.496094 C 156.890625 51.496094 156 51.589844 155.109375 51.773438 L 154.714844 51.378906 L 154.714844 49.179688 C 154.429688 49.625 154.132812 50.035156 153.832031 50.417969 C 153.53125 50.796875 153.171875 51.125 152.75 51.398438 C 152.332031 51.671875 151.847656 51.898438 151.292969 52.070312 C 150.746094 52.242188 150.089844 52.328125 149.328125 52.328125 C 146.707031 52.328125 144.832031 51.519531 143.707031 49.90625 C 142.582031 48.292969 141.992188 45.953125 141.9375 42.890625 C 141.914062 41.472656 141.878906 40.351562 141.839844 39.523438 C 141.800781 38.703125 141.703125 38.074219 141.542969 37.640625 C 141.390625 37.210938 141.140625 36.933594 140.800781 36.816406 C 140.457031 36.695312 139.972656 36.636719 139.34375 36.636719 L 139.34375 35.457031 C 140 35.457031 140.558594 35.417969 141.015625 35.339844 C 141.476562 35.265625 141.886719 35.144531 142.25 34.984375 C 142.621094 34.828125 142.960938 34.648438 143.277344 34.4375 C 143.59375 34.226562 143.933594 34.003906 144.296875 33.769531 L 145.476562 33.769531 L 145.476562 42.0625 C 145.476562 43.664062 145.582031 45 145.789062 46.074219 C 146.003906 47.144531 146.296875 48.011719 146.671875 48.664062 C 147.054688 49.320312 147.507812 49.789062 148.03125 50.066406 C 148.554688 50.339844 149.132812 50.476562 149.761719 50.476562 C 150.496094 50.476562 151.171875 50.289062 151.785156 49.90625 C 152.402344 49.527344 152.925781 48.996094 153.355469 48.316406 C 153.792969 47.632812 154.128906 46.824219 154.363281 45.894531 C 154.597656 44.964844 154.714844 43.964844 154.714844 42.890625 Z M 181.25 19.964844 L 181.25 47.019531 C 181.25 49.425781 181.488281 51.253906 181.957031 52.5 C 182.433594 53.742188 183.402344 54.367188 184.871094 54.367188 C 185.054688 54.367188 185.269531 54.355469 185.519531 54.328125 C 185.765625 54.304688 185.957031 54.265625 186.085938 54.210938 L 186.210938 54.410156 C 185.863281 54.957031 185.398438 55.324219 184.808594 55.507812 C 184.21875 55.691406 183.660156 55.785156 183.136719 55.785156 C 182.117188 55.785156 181.324219 55.5625 180.761719 55.117188 C 180.199219 54.667969 179.917969 54.117188 179.917969 53.464844 C 179.15625 53.464844 178.617188 53.1875 178.304688 52.640625 C 177.988281 52.085938 177.804688 51.261719 177.757812 50.164062 C 176.863281 51.027344 175.9375 51.605469 174.980469 51.890625 C 174.027344 52.179688 173.101562 52.328125 172.210938 52.328125 C 170.796875 52.328125 169.550781 52.089844 168.476562 51.613281 C 167.402344 51.144531 166.5 50.480469 165.765625 49.628906 C 165.027344 48.777344 164.476562 47.761719 164.113281 46.582031 C 163.746094 45.402344 163.558594 44.109375 163.558594 42.695312 C 163.558594 41.039062 163.816406 39.632812 164.328125 38.46875 C 164.839844 37.300781 165.507812 36.335938 166.332031 35.574219 C 167.15625 34.816406 168.101562 34.261719 169.164062 33.902344 C 170.222656 33.550781 171.304688 33.375 172.40625 33.375 C 173.507812 33.375 174.476562 33.546875 175.316406 33.886719 C 176.15625 34.226562 176.957031 34.828125 177.714844 35.691406 L 177.714844 27.710938 C 177.714844 26.742188 177.695312 25.9375 177.660156 25.296875 C 177.617188 24.65625 177.503906 24.15625 177.320312 23.800781 C 177.136719 23.445312 176.875 23.199219 176.535156 23.054688 C 176.195312 22.914062 175.722656 22.839844 175.121094 22.839844 L 175.121094 21.660156 C 175.777344 21.660156 176.332031 21.621094 176.792969 21.539062 C 177.25 21.460938 177.664062 21.34375 178.027344 21.1875 C 178.394531 21.027344 178.738281 20.84375 179.050781 20.636719 C 179.367188 20.425781 179.707031 20.203125 180.074219 19.964844 Z M 172.40625 50.515625 C 173.300781 50.515625 174.085938 50.3125 174.765625 49.90625 C 175.449219 49.5 176.007812 48.945312 176.4375 48.234375 C 176.871094 47.527344 177.199219 46.707031 177.417969 45.777344 C 177.644531 44.847656 177.757812 43.84375 177.757812 42.769531 C 177.757812 41.75 177.648438 40.785156 177.4375 39.882812 C 177.226562 38.976562 176.902344 38.175781 176.453125 37.484375 C 176.011719 36.789062 175.453125 36.246094 174.785156 35.851562 C 174.117188 35.457031 173.3125 35.261719 172.371094 35.261719 C 171.421875 35.261719 170.621094 35.453125 169.96875 35.832031 C 169.3125 36.214844 168.789062 36.738281 168.394531 37.40625 C 168 38.074219 167.722656 38.859375 167.554688 39.765625 C 167.382812 40.667969 167.296875 41.644531 167.296875 42.695312 C 167.296875 43.714844 167.375 44.695312 167.535156 45.644531 C 167.691406 46.585938 167.964844 47.417969 168.359375 48.136719 C 168.75 48.859375 169.273438 49.433594 169.929688 49.871094 C 170.585938 50.300781 171.410156 50.515625 172.40625 50.515625 Z M 203.703125 19.964844 L 203.703125 47.019531 C 203.703125 49.425781 203.941406 51.253906 204.410156 52.5 C 204.882812 53.742188 205.851562 54.367188 207.316406 54.367188 C 207.5 54.367188 207.71875 54.355469 207.96875 54.328125 C 208.21875 54.304688 208.40625 54.265625 208.539062 54.210938 L 208.65625 54.410156 C 208.316406 54.957031 207.851562 55.324219 207.261719 55.507812 C 206.671875 55.691406 206.113281 55.785156 205.589844 55.785156 C 204.566406 55.785156 203.773438 55.5625 203.210938 55.117188 C 202.648438 54.667969 202.363281 54.117188 202.363281 53.464844 C 201.601562 53.464844 201.066406 53.1875 200.753906 52.640625 C 200.441406 52.085938 200.253906 51.261719 200.203125 50.164062 C 199.308594 51.027344 198.386719 51.605469 197.433594 51.890625 C 196.472656 52.179688 195.550781 52.328125 194.660156 52.328125 C 193.246094 52.328125 192 52.089844 190.925781 51.613281 C 189.851562 51.144531 188.945312 50.480469 188.210938 49.628906 C 187.480469 48.777344 186.929688 47.761719 186.558594 46.582031 C 186.195312 45.402344 186.011719 44.109375 186.011719 42.695312 C 186.011719 41.039062 186.265625 39.632812 186.773438 38.46875 C 187.285156 37.300781 187.957031 36.335938 188.78125 35.574219 C 189.605469 34.816406 190.550781 34.261719 191.613281 33.902344 C 192.675781 33.550781 193.757812 33.375 194.859375 33.375 C 195.957031 33.375 196.925781 33.546875 197.765625 33.886719 C 198.601562 34.226562 199.402344 34.828125 200.164062 35.691406 L 200.164062 27.710938 C 200.164062 26.742188 200.144531 25.9375 200.105469 25.296875 C 200.0625 24.65625 199.953125 24.15625 199.773438 23.800781 C 199.589844 23.445312 199.328125 23.199219 198.984375 23.054688 C 198.640625 22.914062 198.167969 22.839844 197.566406 22.839844 L 197.566406 21.660156 C 198.222656 21.660156 198.78125 21.621094 199.238281 21.539062 C 199.695312 21.460938 200.109375 21.34375 200.480469 21.1875 C 200.84375 21.027344 201.183594 20.84375 201.5 20.636719 C 201.8125 20.425781 202.15625 20.203125 202.523438 19.964844 Z M 194.859375 50.515625 C 195.746094 50.515625 196.535156 50.3125 197.21875 49.90625 C 197.898438 49.5 198.453125 48.945312 198.886719 48.234375 C 199.316406 47.527344 199.644531 46.707031 199.871094 45.777344 C 200.09375 44.847656 200.203125 43.84375 200.203125 42.769531 C 200.203125 41.75 200.097656 40.785156 199.890625 39.882812 C 199.679688 38.976562 199.351562 38.175781 198.90625 37.484375 C 198.460938 36.789062 197.902344 36.246094 197.234375 35.851562 C 196.566406 35.457031 195.761719 35.261719 194.816406 35.261719 C 193.875 35.261719 193.074219 35.453125 192.417969 35.832031 C 191.765625 36.214844 191.238281 36.738281 190.847656 37.40625 C 190.453125 38.074219 190.171875 38.859375 190 39.765625 C 189.832031 40.667969 189.746094 41.644531 189.746094 42.695312 C 189.746094 43.714844 189.824219 44.695312 189.980469 45.644531 C 190.136719 46.585938 190.410156 47.417969 190.804688 48.136719 C 191.195312 48.859375 191.722656 49.433594 192.375 49.871094 C 193.03125 50.300781 193.859375 50.515625 194.859375 50.515625 Z M 209.871094 27.558594 C 209.871094 26.773438 210.148438 26.109375 210.699219 25.566406 C 211.25 25.03125 211.90625 24.761719 212.667969 24.761719 C 213.425781 24.761719 214.074219 25.03125 214.613281 25.566406 C 215.148438 26.109375 215.417969 26.773438 215.417969 27.558594 C 215.417969 28.34375 215.148438 29.007812 214.613281 29.542969 C 214.074219 30.078125 213.425781 30.347656 212.667969 30.347656 C 211.90625 30.347656 211.25 30.078125 210.699219 29.542969 C 210.148438 29.007812 209.871094 28.34375 209.871094 27.558594 Z M 214.320312 33.375 L 214.320312 47.878906 C 214.320312 48.402344 214.402344 48.835938 214.570312 49.179688 C 214.742188 49.519531 214.953125 49.796875 215.203125 50.003906 C 215.449219 50.214844 215.734375 50.363281 216.0625 50.460938 C 216.390625 50.550781 216.710938 50.59375 217.027344 50.59375 L 217.027344 51.773438 C 216.710938 51.773438 216.367188 51.753906 215.988281 51.710938 C 215.609375 51.675781 215.207031 51.628906 214.785156 51.578125 C 214.367188 51.523438 213.96875 51.480469 213.585938 51.441406 C 213.207031 51.402344 212.859375 51.378906 212.550781 51.378906 C 212.234375 51.378906 211.886719 51.402344 211.503906 51.441406 C 211.125 51.480469 210.726562 51.523438 210.308594 51.578125 C 209.886719 51.628906 209.488281 51.675781 209.109375 51.710938 C 208.730469 51.753906 208.378906 51.773438 208.066406 51.773438 L 208.066406 50.59375 C 208.773438 50.59375 209.402344 50.398438 209.953125 50.003906 C 210.503906 49.613281 210.78125 48.902344 210.78125 47.878906 L 210.78125 41.121094 C 210.78125 40.152344 210.761719 39.34375 210.71875 38.703125 C 210.679688 38.058594 210.566406 37.5625 210.386719 37.210938 C 210.203125 36.851562 209.941406 36.601562 209.601562 36.460938 C 209.257812 36.316406 208.785156 36.246094 208.183594 36.246094 L 208.183594 35.066406 C 208.835938 35.066406 209.394531 35.027344 209.851562 34.949219 C 210.3125 34.871094 210.726562 34.75 211.09375 34.59375 C 211.457031 34.4375 211.796875 34.253906 212.113281 34.046875 C 212.429688 33.832031 212.769531 33.609375 213.140625 33.375 Z M 228.625 50.558594 C 229.019531 50.558594 229.410156 50.511719 229.804688 50.417969 C 230.199219 50.324219 230.574219 50.15625 230.929688 49.90625 C 231.28125 49.65625 231.609375 49.300781 231.910156 48.84375 C 232.210938 48.386719 232.480469 47.777344 232.714844 47.019531 C 233.320312 47.019531 233.816406 47.164062 234.210938 47.449219 C 234.601562 47.734375 234.800781 48.183594 234.800781 48.789062 C 234.800781 49.335938 234.625 49.835938 234.269531 50.28125 C 233.914062 50.726562 233.441406 51.101562 232.851562 51.398438 C 232.261719 51.703125 231.582031 51.929688 230.804688 52.085938 C 230.035156 52.246094 229.230469 52.328125 228.390625 52.328125 C 226.949219 52.328125 225.679688 52.097656 224.578125 51.636719 C 223.476562 51.179688 222.558594 50.535156 221.824219 49.710938 C 221.09375 48.882812 220.535156 47.878906 220.15625 46.699219 C 219.773438 45.519531 219.582031 44.222656 219.582031 42.8125 C 219.582031 39.875 220.355469 37.566406 221.90625 35.886719 C 223.449219 34.214844 225.648438 33.375 228.507812 33.375 C 228.847656 33.375 229.1875 33.386719 229.527344 33.414062 C 229.871094 33.441406 230.1875 33.5 230.472656 33.589844 C 230.761719 33.679688 230.996094 33.8125 231.179688 33.984375 C 231.367188 34.15625 231.457031 34.375 231.457031 34.636719 C 231.851562 34.636719 232.25 34.714844 232.65625 34.867188 C 233.0625 35.023438 233.441406 35.257812 233.796875 35.574219 C 234.148438 35.890625 234.4375 36.289062 234.664062 36.773438 C 234.886719 37.261719 234.996094 37.84375 234.996094 38.523438 C 234.996094 39.496094 234.761719 40.292969 234.289062 40.925781 C 233.816406 41.550781 233.222656 42.054688 232.5 42.4375 C 231.78125 42.816406 230.996094 43.078125 230.144531 43.222656 C 229.292969 43.367188 228.484375 43.4375 227.722656 43.4375 C 226.859375 43.4375 226.050781 43.371094 225.300781 43.242188 C 224.558594 43.109375 223.921875 42.953125 223.398438 42.769531 L 223.398438 42.929688 C 223.398438 44.03125 223.488281 45.050781 223.675781 45.992188 C 223.859375 46.9375 224.152344 47.746094 224.558594 48.414062 C 224.964844 49.082031 225.5 49.605469 226.167969 49.984375 C 226.835938 50.367188 227.65625 50.558594 228.625 50.558594 Z M 228.195312 35.226562 C 226.777344 35.226562 225.691406 35.734375 224.933594 36.753906 C 224.171875 37.777344 223.6875 39.191406 223.476562 41 C 223.925781 41.289062 224.53125 41.480469 225.300781 41.570312 C 226.078125 41.664062 226.816406 41.710938 227.527344 41.710938 C 228.941406 41.710938 229.933594 41.488281 230.492188 41.042969 C 231.058594 40.597656 231.339844 39.820312 231.339844 38.71875 C 231.339844 37.410156 231.039062 36.5 230.4375 35.988281 C 229.832031 35.480469 229.085938 35.226562 228.195312 35.226562 Z M 251.507812 37.03125 C 251.507812 38.027344 251.175781 38.753906 250.507812 39.210938 C 249.839844 39.671875 249.085938 39.898438 248.246094 39.898438 L 248.128906 39.703125 C 248.308594 39.625 248.507812 39.429688 248.71875 39.113281 C 248.925781 38.796875 249.03125 38.378906 249.03125 37.855469 C 249.03125 36.964844 248.703125 36.304688 248.050781 35.871094 C 247.394531 35.441406 246.527344 35.226562 245.449219 35.226562 C 245.1875 35.226562 244.875 35.25 244.511719 35.296875 C 244.140625 35.351562 243.789062 35.46875 243.449219 35.65625 C 243.109375 35.839844 242.8125 36.101562 242.5625 36.441406 C 242.3125 36.78125 242.1875 37.226562 242.1875 37.78125 C 242.1875 38.511719 242.4375 39.089844 242.9375 39.507812 C 243.433594 39.929688 244.054688 40.28125 244.804688 40.570312 C 245.550781 40.855469 246.355469 41.128906 247.21875 41.390625 C 248.089844 41.65625 248.894531 41.996094 249.640625 42.417969 C 250.386719 42.835938 251.007812 43.386719 251.507812 44.070312 C 252.007812 44.75 252.257812 45.652344 252.257812 46.78125 C 252.257812 48.613281 251.570312 49.996094 250.191406 50.925781 C 248.816406 51.859375 247 52.328125 244.746094 52.328125 C 244.589844 52.328125 244.339844 52.320312 244 52.300781 C 243.65625 52.289062 243.320312 52.257812 242.992188 52.203125 C 242.667969 52.15625 242.371094 52.078125 242.109375 51.96875 C 241.847656 51.863281 241.714844 51.707031 241.714844 51.496094 C 240.617188 51.496094 239.792969 51.207031 239.242188 50.632812 C 238.691406 50.058594 238.417969 49.324219 238.417969 48.433594 C 238.417969 47.460938 238.699219 46.765625 239.257812 46.347656 C 239.824219 45.929688 240.472656 45.691406 241.207031 45.644531 L 241.285156 45.761719 C 241.078125 45.992188 240.945312 46.300781 240.894531 46.679688 C 240.839844 47.0625 240.8125 47.355469 240.8125 47.566406 C 240.8125 48.144531 240.945312 48.621094 241.207031 49.003906 C 241.46875 49.382812 241.796875 49.683594 242.1875 49.90625 C 242.582031 50.128906 243.023438 50.285156 243.507812 50.378906 C 243.992188 50.46875 244.46875 50.515625 244.941406 50.515625 C 245.046875 50.515625 245.292969 50.503906 245.671875 50.476562 C 246.046875 50.449219 246.433594 50.351562 246.828125 50.183594 C 247.21875 50.011719 247.574219 49.734375 247.890625 49.351562 C 248.203125 48.976562 248.363281 48.445312 248.363281 47.761719 C 248.363281 46.953125 248.128906 46.3125 247.65625 45.839844 C 247.183594 45.363281 246.589844 44.972656 245.867188 44.660156 C 245.148438 44.34375 244.367188 44.050781 243.527344 43.777344 C 242.6875 43.496094 241.910156 43.160156 241.1875 42.769531 C 240.46875 42.375 239.871094 41.859375 239.398438 41.21875 C 238.929688 40.578125 238.695312 39.71875 238.695312 38.640625 C 238.695312 37.566406 238.929688 36.691406 239.398438 36.011719 C 239.871094 35.328125 240.460938 34.789062 241.167969 34.394531 C 241.878906 34.003906 242.632812 33.734375 243.429688 33.589844 C 244.226562 33.449219 244.957031 33.375 245.609375 33.375 C 246.449219 33.375 247.09375 33.453125 247.539062 33.609375 C 247.980469 33.769531 248.203125 33.992188 248.203125 34.277344 C 248.597656 34.277344 248.988281 34.324219 249.382812 34.414062 C 249.777344 34.507812 250.128906 34.660156 250.445312 34.867188 C 250.761719 35.078125 251.015625 35.359375 251.210938 35.714844 C 251.410156 36.070312 251.507812 36.507812 251.507812 37.03125 Z M 251.507812 37.03125 " fill-opacity="1" fill-rule="nonzero"/></svg>